<svg xmlns="http://www.w3.org/2000/svg" viewBox="0 0 32 32"><defs><style>.cls-1{isolation:isolate;}.cls-2{fill:#81107d;}.cls-3{fill:#65b2e8;}.cls-4{fill:#657edd;mix-blend-mode:multiply;}.cls-5{fill:#000f9f;}.cls-6{fill:#fff;}.cls-7{fill:none;}</style></defs><g class="cls-1"><g id="Layer_2" data-name="Layer 2"><g id="Layer_1-2" data-name="Layer 1"><path class="cls-2" d="M7.33,21.1a4.89,4.89,0,0,1,1-5.54c2.32-2.23,1.86-3.63,1.37-5.11l0,0C6.43,12,3.9,14.8,3.9,18.3c0,5.46,5.76,7.91,11.48,7.91A8.7,8.7,0,0,1,7.33,21.1Z"/><path class="cls-3" d="M23.94,11.74a25.67,25.67,0,0,0-8-5.29C12.5,5.18,10.83,6,10,6.9,9,8.11,9.35,9.32,9.7,10.4a13.89,13.89,0,0,1,6-1.4c6,0,9.74,3.22,9.74,8.41s-4.12,8.8-10,8.8c6.33,0,12.72-2.34,12.72-7.57C28.1,16.1,25.49,13.23,23.94,11.74Z"/><path class="cls-4" d="M25.4,17.41C25.4,12.22,21.67,9,15.66,9a13.89,13.89,0,0,0-6,1.4l0,0c.49,1.48.95,2.88-1.37,5.11a4.89,4.89,0,0,0-1,5.54,8.7,8.7,0,0,0,8.05,5.11C21.28,26.21,25.4,22.59,25.4,17.41Z"/><path class="cls-5" d="M25.4,17.41C25.4,12.22,21.67,9,15.66,9a13.89,13.89,0,0,0-6,1.4l0,0c.49,1.48.95,2.88-1.37,5.11a4.89,4.89,0,0,0-1,5.54,8.7,8.7,0,0,0,8.05,5.11C21.28,26.21,25.4,22.59,25.4,17.41Z"/><path class="cls-6" d="M14.28,15.74a1.59,1.59,0,0,0-1.9,0A1.56,1.56,0,0,0,11.75,17a1.58,1.58,0,0,0,.63,1.27,1.61,1.61,0,0,0,1.9,0A1.58,1.58,0,0,0,14.91,17,1.56,1.56,0,0,0,14.28,15.74Z"/><path class="cls-6" d="M20.79,15.74a1.59,1.59,0,0,0-1.9,0A1.56,1.56,0,0,0,18.26,17a1.58,1.58,0,0,0,.63,1.27,1.63,1.63,0,0,0,.95.31A1.57,1.57,0,0,0,21.42,17,1.56,1.56,0,0,0,20.79,15.74Z"/><rect class="cls-7" width="32" height="32"/></g></g></g></svg>